HIERARCHY
ROOT Hips
{
	OFFSET 0.00 0.00 0.00
	CHANNELS 6 Xposition Yposition Zposition Xrotation Yrotation Zrotation
	JOINT RightUpLeg
	{
		OFFSET -3.76699 0.00000 0.00000
		CHANNELS 3 Xrotation Yrotation Zrotation
		JOINT RightLeg
		{
			OFFSET 0.00000 -18.01768 0.00000
			CHANNELS 3 Xrotation Yrotation Zrotation
			JOINT RightFoot
			{
				OFFSET 0.00000 -16.88108 0.00000
				CHANNELS 3 Xrotation Yrotation Zrotation
				JOINT RightToeBase
				{
					OFFSET 0.00000 -1.49359 5.57418
					CHANNELS 3 Xrotation Yrotation Zrotation
					End Site
					{
						OFFSET 0.00000 0.00000 2.95275
					}
				}
			}
		}
	}
	JOINT LeftUpLeg
	{
		OFFSET 3.76699 0.00000 0.00000
		CHANNELS 3 Xrotation Yrotation Zrotation
		JOINT LeftLeg
		{
			OFFSET 0.00000 -18.01768 0.00000
			CHANNELS 3 Xrotation Yrotation Zrotation
			JOINT LeftFoot
			{
				OFFSET 0.00000 -16.88108 0.00000
				CHANNELS 3 Xrotation Yrotation Zrotation
				JOINT LeftToeBase
				{
					OFFSET 0.00000 -1.49359 5.57418
					CHANNELS 3 Xrotation Yrotation Zrotation
					End Site
					{
						OFFSET 0.00000 0.00000 2.95275
					}
				}
			}
		}
	}
	JOINT Spine
	{
		OFFSET 0.00000 7.77970 0.00000
		CHANNELS 3 Xrotation Yrotation Zrotation
		JOINT RightShoulder
		{
			OFFSET 0.00000 10.94176 0.00000
			CHANNELS 3 Xrotation Yrotation Zrotation
			JOINT RightArm
			{
				OFFSET -7.70894 0.00000 0.00000
				CHANNELS 3 Xrotation Yrotation Zrotation
				JOINT RightForeArm
				{
					OFFSET -11.52135 0.00000 0.00000
					CHANNELS 3 Yrotation Zrotation Xrotation
					JOINT RightHand
					{
						OFFSET -10.17590 0.00000 0.00000
						CHANNELS 3 Xrotation Yrotation Zrotation
						End Site
						{
							OFFSET -3.93700 0.00000 0.00000
						}
						JOINT RightHandThumb1
						{
							OFFSET 0.00000 0.00000 0.00000
							CHANNELS 3 Xrotation Zrotation Yrotation
							End Site
							{
								OFFSET 0.00000 0.00000 3.93700
							}
						}
					}
				}
			}
		}
		JOINT LeftShoulder
		{
			OFFSET 0.00000 10.94176 0.00000
			CHANNELS 3 Xrotation Yrotation Zrotation
			JOINT LeftArm
			{
				OFFSET 7.70894 0.00000 0.00000
				CHANNELS 3 Xrotation Yrotation Zrotation
				JOINT LeftForeArm
				{
					OFFSET 11.52135 0.00000 0.00000
					CHANNELS 3 Yrotation Zrotation Xrotation
					JOINT LeftHand
					{
						OFFSET 10.17590 0.00000 0.00000
						CHANNELS 3 Xrotation Yrotation Zrotation
						End Site
						{
							OFFSET 3.93700 0.00000 0.00000
						}
						JOINT LeftHandThumb1
						{
							OFFSET 0.00000 0.00000 0.00000
							CHANNELS 3 Xrotation Zrotation Yrotation
							End Site
							{
								OFFSET 0.00000 0.00000 3.93700
							}
						}
					}
				}
			}
		}
		JOINT Head
		{
			OFFSET 0.00000 16.64604 0.00000
			CHANNELS 3 Xrotation Yrotation Zrotation
			End Site
			{
				OFFSET 0.00000 4.52755 0.00000
			}
		}
	}
}
MOTION
Frames: 23
Frame Time: 0.008333
 3.1936 37.0308 4.9971 -6.3209 -2.9253 2.2472 13.9773 -7.3850 -4.3294 -4.8565 -0.0000 -0.0000 -9.0903 -18.4717 9.6433 14.7390 -0.0000 0.0000 12.8381 5.2923 0.7888 -2.0883 -0.0000 0.0000 -5.5538 13.5521 -12.2013 8.2902 -0.0000 -0.0000 10.1550 -3.5737 -3.7639 10.0438 -6.6671 -27.3544 -27.9007 -5.8788 26.9847 16.6596 0.0000 -4.7658 -0.3010 2.2069 7.7684 32.8623 0.0000 -24.3270 26.4356 30.0673 15.7693 -57.5135 -0.0003 -32.5377 -7.6371 0.0000 36.2921 2.4390 15.5040 -9.0539 33.1476 -0.0000 26.2537 -2.9762 12.9433 4.8628
 3.1943 37.0308 4.9994 -6.3292 -2.9434 2.2515 13.9830 -7.3898 -4.3406 -4.8528 0.0000 0.0000 -9.0967 -18.4414 9.6320 14.7509 -0.0000 -0.0000 12.8469 5.3092 0.7735 -2.0716 -0.0000 -0.0000 -5.5638 13.5946 -12.2460 8.3137 0.0000 -0.0000 10.1629 -3.5621 -3.7666 10.0450 -6.6801 -27.3638 -27.9363 -5.8919 26.9344 16.6544 0.0000 -4.8071 -0.3105 2.2561 7.8384 32.8623 0.0000 -24.3270 26.4336 30.0711 15.7576 -57.5568 0.0081 -32.4907 -7.6186 0.0000 36.4131 2.4229 15.5171 -8.9876 33.1476 -0.0000 26.2537 -2.9823 12.9412 4.8401
 3.1934 37.0306 5.0015 -6.3310 -2.9531 2.2486 13.9867 -7.3882 -4.3385 -4.8518 0.0000 -0.0000 -9.0984 -18.4380 9.6414 14.7651 0.0000 -0.0000 12.8549 5.2902 0.7813 -2.0761 -0.0000 -0.0000 -5.5714 13.5829 -12.2117 8.3286 -0.0000 -0.0000 10.1655 -3.5725 -3.7647 10.1016 -6.7179 -27.3434 -28.0633 -5.8920 26.8632 16.6525 0.0000 -4.8245 -0.3201 2.3070 7.9016 32.8623 0.0000 -24.3270 26.3963 30.0789 15.7690 -57.5324 0.0150 -32.4461 -7.6190 0.0000 36.4424 2.4312 15.4430 -9.0595 33.1476 -0.0000 26.2537 -3.0058 12.9477 4.8240
 3.1927 37.0307 5.0028 -6.3339 -2.9609 2.2430 13.9899 -7.3853 -4.3301 -4.8539 0.0000 -0.0000 -9.0951 -18.4231 9.6463 14.7596 -0.0000 0.0000 12.8564 5.3047 0.7854 -2.0669 0.0000 0.0000 -5.5714 13.5695 -12.1985 8.3308 -0.0000 -0.0000 10.1700 -3.5735 -3.7587 10.1107 -6.7367 -27.3448 -28.0984 -5.8874 26.8193 16.6458 0.0000 -4.8129 -0.3289 2.3653 7.9193 32.8623 0.0000 -24.3270 26.3611 30.0768 15.7763 -57.5369 0.0304 -32.3881 -7.6167 0.0000 36.5349 2.4569 15.3723 -9.1943 33.1476 -0.0000 26.2537 -3.0233 12.9545 4.8175
 3.1918 37.0307 5.0043 -6.3353 -2.9657 2.2417 13.9928 -7.3876 -4.3239 -4.8572 -0.0000 -0.0000 -9.0873 -18.4289 9.6112 14.7236 0.0000 -0.0000 12.8584 5.2965 0.7879 -2.0624 -0.0000 0.0000 -5.5737 13.5881 -12.2091 8.2863 0.0000 -0.0000 10.1718 -3.5729 -3.7602 10.0987 -6.7489 -27.3547 -28.1070 -5.9047 26.7914 16.6701 0.0000 -4.8173 -0.3398 2.4403 7.9302 32.8623 0.0000 -24.3270 26.3481 30.0775 15.7808 -57.5548 0.0375 -32.3343 -7.6095 0.0000 36.5263 2.4856 15.3365 -9.3208 33.1476 -0.0000 26.2537 -3.0416 12.9605 4.8077
 3.1913 37.0307 5.0051 -6.3364 -2.9754 2.2375 13.9854 -7.3836 -4.3223 -4.8375 0.0000 0.0000 -9.1086 -18.4278 9.6461 14.7751 0.0000 -0.0000 12.8559 5.3044 0.7901 -2.0498 0.0000 -0.0000 -5.5865 13.5955 -12.2096 8.3108 -0.0000 0.0000 10.1779 -3.5726 -3.7580 10.0875 -6.7626 -27.3656 -28.0840 -5.8802 26.7680 16.6536 0.0000 -4.8751 -0.3529 2.5434 7.9014 32.8623 0.0000 -24.3270 26.3300 30.0957 15.7941 -57.5708 0.0540 -32.3063 -7.6027 0.0000 36.4944 2.4989 15.2560 -9.4169 33.1476 -0.0000 26.2537 -3.0713 12.9688 4.8008
 3.1904 37.0314 5.0060 -6.3358 -2.9768 2.2290 13.9694 -7.3947 -4.3142 -4.8010 -0.0000 -0.0000 -9.1186 -18.4430 9.6506 14.7567 0.0000 -0.0000 12.8524 5.2962 0.7991 -2.0392 -0.0000 -0.0000 -5.5868 13.5962 -12.1900 8.3224 0.0000 0.0000 10.1789 -3.5774 -3.7498 10.0908 -6.7708 -27.3624 -28.0971 -5.8847 26.7228 16.6629 0.0000 -4.9210 -0.3618 2.5890 7.9586 32.8623 0.0000 -24.3270 26.2931 30.0879 15.8105 -57.5305 0.0389 -32.2535 -7.5843 0.0000 36.4390 2.5299 15.2625 -9.5281 33.1476 -0.0000 26.2537 -3.0914 12.9767 4.7963
 3.1892 37.0315 5.0070 -6.3374 -2.9808 2.2202 13.9696 -7.3955 -4.3015 -4.8028 -0.0000 -0.0000 -9.0983 -18.4240 9.6143 14.6857 -0.0000 0.0000 12.8520 5.3041 0.8097 -2.0357 -0.0000 -0.0000 -5.5939 13.6001 -12.1809 8.3091 0.0000 -0.0000 10.1852 -3.5846 -3.7433 10.0786 -6.7701 -27.3659 -28.1509 -5.9271 26.6834 16.7064 0.0000 -4.8574 -0.3583 2.5532 7.9901 32.8623 0.0000 -24.3270 26.2577 30.1102 15.8303 -57.5461 0.0550 -32.2370 -7.5784 0.0000 36.3769 2.5367 15.2341 -9.5701 33.1476 -0.0000 26.2537 -3.1202 12.9846 4.8009
 3.1895 37.0317 5.0075 -6.3421 -2.9846 2.2215 13.9641 -7.3901 -4.3077 -4.7767 -0.0000 -0.0000 -9.1257 -18.4446 9.6246 14.7667 0.0000 -0.0000 12.8536 5.3027 0.8052 -2.0256 -0.0000 0.0000 -5.6067 13.6120 -12.1757 8.3068 0.0000 0.0000 10.1972 -3.5932 -3.7444 10.0631 -6.7805 -27.3880 -28.1815 -5.9409 26.6906 16.6765 0.0000 -4.8341 -0.3802 2.7757 7.8036 32.8623 0.0000 -24.3270 26.2365 30.1086 15.8361 -57.5474 0.0628 -32.1855 -7.5644 0.0000 36.3171 2.5455 15.2014 -9.6227 33.1476 -0.0000 26.2537 -3.1551 12.9896 4.7955
 3.1893 37.0318 5.0078 -6.3451 -2.9954 2.2188 13.9596 -7.3851 -4.3029 -4.7687 0.0000 0.0000 -9.1272 -18.4303 9.6030 14.7079 -0.0000 0.0000 12.8505 5.3112 0.8066 -2.0093 -0.0000 0.0000 -5.6136 13.6126 -12.1833 8.2993 -0.0000 0.0000 10.2076 -3.5897 -3.7457 10.0581 -6.7866 -27.3929 -28.2091 -5.9645 26.6674 16.7040 0.0000 -4.8007 -0.3805 2.7954 7.7533 32.8623 0.0000 -24.3270 26.2088 30.1127 15.8488 -57.5790 0.0832 -32.1494 -7.5537 0.0000 36.3029 2.5573 15.1775 -9.6810 33.1476 -0.0000 26.2537 -3.1898 13.0086 4.8103
 3.1889 37.0320 5.0082 -6.3467 -3.0003 2.2150 13.9587 -7.3794 -4.3002 -4.7598 -0.0000 0.0000 -9.1307 -18.4251 9.6081 14.7094 -0.0000 -0.0000 12.8492 5.3224 0.8097 -2.0008 -0.0000 -0.0000 -5.6224 13.6068 -12.1730 8.3242 -0.0000 0.0000 10.2142 -3.5952 -3.7414 10.0492 -6.7760 -27.3766 -28.0372 -5.9073 26.6152 16.7401 0.0000 -5.0139 -0.3942 2.9527 7.6075 32.8623 0.0000 -24.3270 26.1963 30.1204 15.8539 -57.5948 0.0924 -32.1213 -7.5389 0.0000 36.2702 2.5435 15.1855 -9.6250 33.1476 -0.0000 26.2537 -3.2120 13.0196 4.8005
 3.1887 37.0320 5.0085 -6.3485 -3.0025 2.2121 13.9569 -7.3714 -4.2978 -4.7520 -0.0000 -0.0000 -9.1381 -18.4314 9.5902 14.7615 0.0000 -0.0000 12.8484 5.3136 0.8121 -1.9946 0.0000 -0.0000 -5.6236 13.6223 -12.1768 8.3192 0.0000 -0.0000 10.2220 -3.6020 -3.7421 10.0347 -6.7834 -27.3928 -28.0862 -5.9158 26.6179 16.6951 0.0000 -5.0091 -0.4071 3.0594 7.5831 32.8623 0.0000 -24.3270 26.1776 30.1355 15.8674 -57.6202 0.1052 -32.1036 -7.5319 0.0000 36.3144 2.5435 15.2023 -9.6146 33.1476 -0.0000 26.2537 -3.2414 13.0286 4.8120
 3.1892 37.0321 5.0088 -6.3476 -3.0052 2.2156 13.9488 -7.3808 -4.3064 -4.7337 -0.0000 0.0000 -9.1495 -18.4427 9.6293 14.7653 0.0000 0.0000 12.8418 5.3203 0.8080 -1.9795 -0.0000 -0.0000 -5.6367 13.6137 -12.1848 8.3874 0.0000 -0.0000 10.2252 -3.5959 -3.7453 10.0251 -6.7870 -27.3955 -28.1249 -5.9894 26.6058 16.7839 0.0000 -4.8691 -0.4020 3.0743 7.4544 32.8623 0.0000 -24.3270 26.1759 30.1246 15.8670 -57.6634 0.1192 -32.0627 -7.5142 0.0000 36.3537 2.5416 15.2026 -9.6073 33.1476 -0.0000 26.2537 -3.2611 13.0319 4.8096
 3.1880 37.0323 5.0087 -6.3466 -3.0073 2.2102 13.9478 -7.3767 -4.2943 -4.7417 -0.0000 0.0000 -9.1377 -18.4246 9.5870 14.7232 -0.0000 -0.0000 12.8376 5.3320 0.8155 -1.9749 0.0000 0.0000 -5.6337 13.6051 -12.1759 8.3090 0.0000 0.0000 10.2283 -3.6042 -3.7428 10.0159 -6.7922 -27.3974 -28.1355 -5.9865 26.5993 16.7761 0.0000 -4.8478 -0.4149 3.2117 7.3642 32.8623 0.0000 -24.3270 26.1373 30.1313 15.8957 -57.6864 0.1532 -32.0519 -7.5113 0.0000 36.3776 2.5390 15.2413 -9.5746 33.1476 -0.0000 26.2537 -3.2774 13.0467 4.8150
 3.1873 37.0325 5.0087 -6.3471 -3.0057 2.2080 13.9461 -7.3815 -4.2934 -4.7346 -0.0000 -0.0000 -9.1341 -18.4105 9.6064 14.7294 -0.0000 0.0000 12.8350 5.3195 0.8186 -1.9694 0.0000 0.0000 -5.6361 13.6229 -12.1838 8.3132 0.0000 -0.0000 10.2346 -3.6140 -3.7408 10.0140 -6.7999 -27.4033 -28.1468 -5.9963 26.5941 16.8091 0.0000 -4.8157 -0.4127 3.2220 7.3029 32.8623 0.0000 -24.3270 26.1140 30.1385 15.9095 -57.7194 0.1787 -32.0353 -7.5046 0.0000 36.3544 2.5188 15.2292 -9.5069 33.1476 -0.0000 26.2537 -3.3042 13.0515 4.8186
 3.1872 37.0323 5.0086 -6.3427 -3.0082 2.2070 13.9421 -7.3687 -4.2962 -4.7281 0.0000 0.0000 -9.1484 -18.4397 9.6080 14.7474 -0.0000 0.0000 12.8301 5.3230 0.8186 -1.9677 -0.0000 -0.0000 -5.6417 13.6193 -12.1545 8.3006 -0.0000 0.0000 10.2338 -3.6219 -3.7401 10.0078 -6.8050 -27.4129 -28.1017 -5.9707 26.5954 16.8110 0.0000 -4.8567 -0.4141 3.2636 7.2357 32.8623 0.0000 -24.3270 26.0879 30.1430 15.9278 -57.7447 0.2168 -32.0165 -7.5156 0.0000 36.3711 2.5063 15.2253 -9.4628 33.1476 -0.0000 26.2537 -3.3182 13.0692 4.8146
 3.1866 37.0326 5.0076 -6.3335 -3.0123 2.2011 13.9329 -7.3631 -4.2908 -4.7287 -0.0000 -0.0000 -9.1405 -18.4314 9.6234 14.7447 -0.0000 0.0000 12.8184 5.3321 0.8254 -1.9638 0.0000 0.0000 -5.6475 13.6166 -12.1826 8.3489 -0.0000 0.0000 10.2272 -3.6212 -3.7369 9.9943 -6.8046 -27.4081 -28.0805 -5.9609 26.5839 16.8145 0.0000 -4.8731 -0.4160 3.2987 7.1919 32.8623 0.0000 -24.3270 26.0695 30.1393 15.9471 -57.7880 0.2600 -32.0017 -7.5241 0.0000 36.4128 2.5269 15.2968 -9.4964 33.1476 -0.0000 26.2537 -3.3307 13.0732 4.8297
 3.1861 37.0327 5.0079 -6.3291 -3.0106 2.2003 13.9269 -7.3801 -4.2843 -4.7334 0.0000 0.0000 -9.1354 -18.4108 9.6227 14.7599 -0.0000 -0.0000 12.8140 5.3275 0.8283 -1.9640 -0.0000 -0.0000 -5.6488 13.6253 -12.1724 8.3388 0.0000 -0.0000 10.2228 -3.6314 -3.7378 9.9945 -6.8138 -27.4166 -28.0421 -5.9305 26.5896 16.8052 0.0000 -4.9378 -0.4211 3.3486 7.1717 32.8623 0.0000 -24.3270 26.0794 30.1619 15.9493 -57.8334 0.2729 -32.0045 -7.5273 0.0000 36.3899 2.5180 15.2485 -9.4924 33.1476 -0.0000 26.2537 -3.3390 13.0946 4.8376
 3.1858 37.0325 5.0081 -6.3247 -3.0151 2.1973 13.9247 -7.3723 -4.2853 -4.7316 -0.0000 -0.0000 -9.1363 -18.4282 9.6406 14.7501 0.0000 0.0000 12.8168 5.3265 0.8300 -1.9753 -0.0000 0.0000 -5.6402 13.6267 -12.1708 8.3219 -0.0000 -0.0000 10.2212 -3.6289 -3.7332 9.9814 -6.8191 -27.4270 -28.0533 -5.9454 26.5959 16.8162 0.0000 -4.9134 -0.4217 3.3555 7.1665 32.8623 0.0000 -24.3270 26.0545 30.1582 15.9662 -57.8183 0.2792 -31.9925 -7.5388 0.0000 36.3869 2.5191 15.2356 -9.5043 33.1476 -0.0000 26.2537 -3.3457 13.0857 4.8310
 3.1857 37.0325 5.0077 -6.3163 -3.0150 2.2014 13.9150 -7.3901 -4.2845 -4.7358 0.0000 -0.0000 -9.1326 -18.4228 9.6017 14.7444 -0.0000 0.0000 12.8096 5.3195 0.8261 -1.9786 0.0000 0.0000 -5.6410 13.6351 -12.1685 8.3291 0.0000 -0.0000 10.2130 -3.6406 -3.7419 9.9815 -6.8192 -27.4206 -28.0702 -5.9429 26.5921 16.8103 0.0000 -4.9170 -0.4255 3.3804 7.1782 32.8623 0.0000 -24.3270 26.0324 30.1658 15.9819 -57.7980 0.2690 -31.9777 -7.5418 0.0000 36.3655 2.5424 15.2129 -9.6040 33.1476 -0.0000 26.2537 -3.3493 13.1110 4.8549
 3.1857 37.0328 5.0073 -6.3093 -3.0191 2.2009 13.9086 -7.3858 -4.2890 -4.7378 0.0000 -0.0000 -9.1258 -18.4054 9.6218 14.7179 -0.0000 -0.0000 12.8027 5.3300 0.8205 -1.9773 0.0000 -0.0000 -5.6370 13.6686 -12.2106 8.3702 0.0000 -0.0000 10.2075 -3.6387 -3.7433 9.9646 -6.8158 -27.4200 -28.1467 -5.9897 26.5947 16.8116 0.0000 -4.8153 -0.4302 3.3972 7.2217 32.8623 0.0000 -24.3270 26.0348 30.1720 15.9805 -57.7931 0.2438 -31.9641 -7.5395 0.0000 36.3436 2.5502 15.1810 -9.6525 33.1476 -0.0000 26.2537 -3.3516 13.1108 4.8662
 3.1843 37.0324 5.0064 -6.2985 -3.0252 2.1948 13.9206 -7.3388 -4.2861 -4.7796 -0.0000 0.0000 -9.0974 -18.3850 9.6242 14.7097 0.0000 0.0000 12.7936 5.3355 0.8337 -1.9844 0.0000 0.0000 -5.6441 13.6367 -12.1845 8.3528 -0.0000 0.0000 10.1955 -3.6320 -3.7413 9.9898 -6.8462 -27.4124 -28.1060 -5.9305 26.5985 16.8076 0.0000 -4.9081 -0.4275 3.3831 7.2070 32.8623 0.0000 -24.3270 26.0196 30.1659 15.9986 -57.7802 0.2372 -31.9477 -7.5361 0.0000 36.3206 2.5524 15.1025 -9.7088 33.1476 -0.0000 26.2537 -3.3432 13.1010 4.8725
 3.1846 37.0324 5.0059 -6.2905 -3.0279 2.1995 13.9198 -7.3252 -4.2950 -4.7889 -0.0000 -0.0000 -9.0986 -18.4091 9.6569 14.7515 0.0000 -0.0000 12.7855 5.3420 0.8232 -1.9828 -0.0000 -0.0000 -5.6400 13.6672 -12.2178 8.3443 0.0000 -0.0000 10.1878 -3.6332 -3.7483 9.9749 -6.8482 -27.4147 -28.0892 -5.9189 26.6111 16.8045 0.0000 -4.9064 -0.4289 3.3922 7.2097 32.8623 0.0000 -24.3270 26.0083 30.1651 16.0073 -57.7476 0.2144 -31.9324 -7.5393 0.0000 36.2710 2.5700 15.0668 -9.7966 33.1476 -0.0000 26.2537 -3.3381 13.0956 4.8868
